<?xml version="1.0" encoding="UTF-8" standalone="no"?>
<svg
   enable-background="new 0 0 128 128"
   height="128px"
   id="Layer_1"
   version="1.1"
   viewBox="0 0 128 128"
   width="128px"
   xml:space="preserve"
   sodipodi:docname="download-icon-ruby+icon-1320195548836502503_0.svg"
   inkscape:version="1.3.2 (091e20e, 2023-11-25)"
   xmlns:inkscape="http://www.inkscape.org/namespaces/inkscape"
   xmlns:sodipodi="http://sodipodi.sourceforge.net/DTD/sodipodi-0.dtd"
   xmlns="http://www.w3.org/2000/svg"
   xmlns:svg="http://www.w3.org/2000/svg"><defs
   id="defs3" /><sodipodi:namedview
   id="namedview3"
   pagecolor="#ffffff"
   bordercolor="#000000"
   borderopacity="0.25"
   inkscape:showpageshadow="2"
   inkscape:pageopacity="0.0"
   inkscape:pagecheckerboard="0"
   inkscape:deskcolor="#d1d1d1"
   inkscape:zoom="7.40625"
   inkscape:cx="63.932489"
   inkscape:cy="64"
   inkscape:window-width="1472"
   inkscape:window-height="1125"
   inkscape:window-x="233"
   inkscape:window-y="90"
   inkscape:window-maximized="0"
   inkscape:current-layer="Layer_1"
   inkscape:lockguides="false" />
    <path
   fill="#ff0000"
   stroke-width="2"
   d="m 112.005,50.192 h -96 c -0.778,0 -1.485,-0.451 -1.813,-1.157 -0.328,-0.706 -0.217,-1.538 0.284,-2.132 L 37.5,19.595 c 0.38,-0.451 0.939,-0.711 1.529,-0.711 h 49.957 c 0.59,0 1.149,0.26 1.529,0.711 l 23.019,27.308 c 0.501,0.595 0.612,1.427 0.284,2.132 -0.328,0.705 -1.035,1.157 -1.813,1.157 z M 14.502094,49.027442 113.37488,48.7574 89.002148,20.318599 38.60879,20.183578 Z"
   id="path1"
   sodipodi:nodetypes="sssccssccssccccc" />
    <path
   id="polygon1"
   style="display:inline;fill:#ff0000"
   inkscape:label="polygon1"
   d="M 15.374662,48.659274 64.140021,106.40867 112.36529,48.794295 113.535,49.48 64.005,108.299 14.475,49.48 Z"
   inkscape:transform-center-x="-3.2405064"
   inkscape:transform-center-y="1.2151899"
   sodipodi:nodetypes="ccccccc" />
    <path
   fill="#ff0000"
   d="m 64.005,107.193 v 0.54008 c 0,0.849 -0.928895,-1.2101 -1.210895,-2.0101 L 42.968148,48.857 c -0.221,-0.625 0.01802,-0.776916 0.410063,-1.310916 L 62.394,19.698 c 0.752,-1.024 2.467,-1.024 3.221,0 l 19.019832,27.713063 c 0.393,0.533 1.576168,1.090979 1.355168,1.580958 L 65.349916,105.99302 c -0.281,0.8 -1.344916,0.35098 -1.344916,1.19998 z M 43.986663,48.795042 64.274042,106.33512 84.4304,49.200105 64.005,20.072346 Z"
   id="path2"
   style="stroke-width:1;stroke-dasharray:none"
   sodipodi:nodetypes="ssccccccccsccccc" />
    <path
   id="rect2"
   transform="matrix(0.1759,0.9844,-0.9844,0.1759,68.1737,-12.3602)"
   style="fill:#ff0000"
   d="m 27.170036,33.942994 28.317497,0.455838 c 0.50927,0.0082 -0.730774,-0.239722 -0.291038,0.01729 0.579169,0.338504 0.363685,1.199793 -0.145627,1.194797 l -28.075414,-0.27542 c -0.509312,-0.005 -0.919378,-0.410042 -0.919378,-0.919377 0,-0.509335 0.60469,-0.481324 1.11396,-0.473126 z"
   sodipodi:nodetypes="sssssss" />
    <path
   id="rect3"
   transform="matrix(0.9844,0.176,-0.176,0.9844,7.431,-14.695)"
   style="fill:#ff0000"
   d="m 85.465714,19.680421 1.335439,0.11882 1.395983,29.411663 -1.335439,-0.118812 z"
   sodipodi:nodetypes="ccccc" />
</svg>
